<?xml version="1.0" encoding="UTF-8"?>
<svg width="1200" height="240" viewBox="0 0 1200 240" xmlns="http://www.w3.org/2000/svg">
  <defs>
    <linearGradient id="g" x1="0" x2="1">
      <stop offset="0%" stop-color="#0b61a8" />
      <stop offset="60%" stop-color="#0ca085" />
    </linearGradient>
  </defs>
  <rect width="1200" height="240" fill="none" />
  <!-- Bullet train silhouette -->
  <g transform="translate(60,20)" fill="url(#g)" stroke="rgba(0,0,0,0.06)" stroke-width="1">
    <path d="M0 80 C40 40 120 20 240 20 L820 20 C940 20 1080 36 1120 80 L1120 120 C1080 164 940 180 820 180 L240 180 C120 180 40 160 0 120 Z" />
    <!-- nose cone -->
    <path d="M1120 80 L1160 92 L1120 108 Z" fill="#07305f" />
    <!-- windows -->
    <g fill="#ffffff" opacity="0.92">
      <rect x="300" y="64" width="68" height="40" rx="6" />
      <rect x="376" y="64" width="68" height="40" rx="6" />
      <rect x="452" y="64" width="68" height="40" rx="6" />
      <rect x="528" y="64" width="68" height="40" rx="6" />
      <rect x="604" y="64" width="68" height="40" rx="6" />
    </g>
    <!-- lower accent -->
    <rect x="20" y="140" width="1060" height="8" rx="4" fill="#071a2b" opacity="0.12" />
  </g>
</svg>
